<svg xmlns="http://www.w3.org/2000/svg" width="175.985" height="30" viewBox="0 0 175.985 30">
  <g id="Gruppe_1397" data-name="Gruppe 1397" transform="translate(-122.691 -35)">
    <g id="Gruppe_58" data-name="Gruppe 58" transform="translate(122.691 35)">
      <path id="Pfad_25" data-name="Pfad 25" d="M24.035,16.429l-1.6-1.6L11.567,25.69V3.955l6.68,6.666,6.667-6.652a14.823,14.823,0,1,0,0,21.707l-5.069-5.057Z" transform="translate(0 0)" fill="#fff"/>
      <rect id="Rechteck_37" data-name="Rechteck 37" width="9.403" height="2.258" transform="translate(29.356 21.553) rotate(-45)" fill="#fff"/>
      <rect id="Rechteck_38" data-name="Rechteck 38" width="8.206" height="2.258" transform="translate(23.495 20.634) rotate(-45)" fill="#fff"/>
    </g>
    <path id="Pfad_26" data-name="Pfad 26" d="M604.227,76.888c-.929,0-1.231-.981-1.231-1.743s.355-1.713,1.253-1.713,1.158.991,1.158,1.713c0,.741-.261,1.743-1.18,1.743m.387-4.541a1.881,1.881,0,0,0-1.608.815h-.02V70.019h-1.4v7.83h1.357V77.19h.02a1.966,1.966,0,0,0,1.65.783c1.649,0,2.254-1.357,2.254-2.829s-.6-2.8-2.254-2.8" transform="translate(-308.319 -15.166)" fill="#fff"/>
    <path id="Pfad_27" data-name="Pfad 27" d="M584.551,82.351a1.187,1.187,0,0,1-.98.481c-.5,0-.888-.2-.888-.657,0-.825.93-.93,1.556-.93h.606a1.779,1.779,0,0,1-.293,1.107m1.588.178c-.01-.4-.021-.8-.021-1.347v-.689c0-1.588-.679-2.267-2.317-2.267a4.814,4.814,0,0,0-1.87.407l.041,1.2a2.817,2.817,0,0,1,1.661-.584c.825,0,1.211.292,1.211,1.158h-.773a4.258,4.258,0,0,0-1.805.313,1.58,1.58,0,0,0-.918,1.536,1.715,1.715,0,0,0,1.879,1.6,1.918,1.918,0,0,0,1.659-.93h.021a6.393,6.393,0,0,0,.063.8H586.2c-.032-.417-.053-.794-.063-1.2" transform="translate(-293.819 -21.046)" fill="#fff"/>
    <path id="Pfad_28" data-name="Pfad 28" d="M562.889,79.22h4.292V78.071h-2.83V71.932h-1.461Z" transform="translate(-280.595 -16.536)" fill="#fff"/>
    <path id="Pfad_29" data-name="Pfad 29" d="M542.633,78.425a6.45,6.45,0,0,0-1.523-.2c-1.1,0-2.109.512-2.109,1.67,0,1.942,2.432,1.222,2.432,2.277,0,.522-.563.657-.918.657a3.072,3.072,0,0,1-1.379-.355l-.083,1.148a6.3,6.3,0,0,0,1.588.229c1.138,0,2.254-.5,2.254-1.754,0-1.942-2.432-1.4-2.432-2.255,0-.459.449-.595.825-.595a3.428,3.428,0,0,1,1.253.229Z" transform="translate(-263.479 -21.046)" fill="#fff"/>
    <path id="Pfad_30" data-name="Pfad 30" d="M520.655,79.251c.783,0,1.1.584,1.14,1.262h-2.381a1.218,1.218,0,0,1,1.242-1.262m-1.242,2.224h3.717c0-1.88-.563-3.247-2.558-3.247-1.67,0-2.5,1.285-2.5,2.841a2.554,2.554,0,0,0,2.808,2.786,3.7,3.7,0,0,0,1.849-.427V82.288a3.622,3.622,0,0,1-1.785.543,1.406,1.406,0,0,1-1.535-1.357" transform="translate(-248.489 -21.046)" fill="#fff"/>
    <rect id="Rechteck_39" data-name="Rechteck 39" width="1.399" height="1.336" transform="translate(267.219 54.989)" fill="#fff"/>
    <rect id="Rechteck_40" data-name="Rechteck 40" width="1.399" height="5.376" transform="translate(267.219 57.307)" fill="#fff"/>
    <path id="Pfad_31" data-name="Pfad 31" d="M490.292,82.644c-.8,0-1.19-.9-1.19-1.629,0-.825.3-1.7,1.252-1.7.816,0,1.17.753,1.17,1.671,0,.9-.354,1.662-1.233,1.662m1.3-4.292v.731h-.021a1.788,1.788,0,0,0-1.649-.857c-1.609,0-2.277,1.494-2.277,2.789,0,1.44.606,2.714,2.193,2.714a1.921,1.921,0,0,0,1.67-.856h.021c0,.929-.074,2.088-1.618,2.088a4.027,4.027,0,0,1-1.566-.47l-.115,1.19a4.718,4.718,0,0,0,1.857.365,2.524,2.524,0,0,0,2.841-2.839V78.352Z" transform="translate(-226.683 -21.046)" fill="#fff"/>
    <path id="Pfad_32" data-name="Pfad 32" d="M467.229,82.769c-1.065,0-1.347-.97-1.347-1.858a1.371,1.371,0,1,1,2.7,0c0,.9-.282,1.858-1.357,1.858m0-4.541a2.691,2.691,0,0,0-2.808,2.851,2.814,2.814,0,0,0,5.627,0,2.694,2.694,0,0,0-2.819-2.851" transform="translate(-210.047 -21.047)" fill="#fff"/>
    <rect id="Rechteck_41" data-name="Rechteck 41" width="1.399" height="7.83" transform="translate(251.985 54.853)" fill="#fff"/>
    <path id="Pfad_33" data-name="Pfad 33" d="M435.524,82.769c-1.065,0-1.348-.97-1.348-1.858a1.371,1.371,0,1,1,2.705,0c0,.9-.282,1.858-1.357,1.858m0-4.541a2.691,2.691,0,0,0-2.809,2.851,2.814,2.814,0,0,0,5.628,0,2.694,2.694,0,0,0-2.819-2.851" transform="translate(-187.331 -21.047)" fill="#fff"/>
    <path id="Pfad_34" data-name="Pfad 34" d="M411.745,83.73h1.4V81.1c0-.689.22-1.785,1.231-1.785.9,0,.909.887.909,1.546V83.73h1.4V80.338c0-1.212-.553-2.11-1.827-2.11a2.009,2.009,0,0,0-1.764.856h-.021v-.73h-1.326Z" transform="translate(-172.307 -21.047)" fill="#fff"/>
    <path id="Pfad_35" data-name="Pfad 35" d="M390.786,77.9h1.4V75.271c0-.689.22-1.785,1.231-1.785.9,0,.909.887.909,1.546V77.9h1.4V74.51c0-1.212-.553-2.11-1.827-2.11a2,2,0,0,0-1.691.857h-.021V70.073h-1.4Z" transform="translate(-157.29 -15.204)" fill="#fff"/>
    <path id="Pfad_36" data-name="Pfad 36" d="M377.223,78.405a4.554,4.554,0,0,0-1.357-.178,2.82,2.82,0,0,0,.052,5.627,4.6,4.6,0,0,0,1.4-.176l-.063-1.159a2.975,2.975,0,0,1-1.076.25c-.981,0-1.451-.762-1.451-1.754,0-1.012.554-1.7,1.42-1.7a2.115,2.115,0,0,1,.951.2Z" transform="translate(-144.738 -21.046)" fill="#fff"/>
    <path id="Pfad_37" data-name="Pfad 37" d="M354.64,79.251c.783,0,1.1.584,1.138,1.262H353.4a1.219,1.219,0,0,1,1.244-1.262M353.4,81.474h3.716c0-1.88-.562-3.247-2.558-3.247-1.67,0-2.5,1.285-2.5,2.841a2.554,2.554,0,0,0,2.808,2.786,3.7,3.7,0,0,0,1.849-.427V82.288a3.623,3.623,0,0,1-1.785.543,1.407,1.407,0,0,1-1.535-1.357" transform="translate(-129.545 -21.046)" fill="#fff"/>
    <path id="Pfad_38" data-name="Pfad 38" d="M334.907,79.22h1.461V73.08h2.089V71.932h-5.638V73.08h2.089Z" transform="translate(-115.759 -16.536)" fill="#fff"/>
    <path id="Pfad_39" data-name="Pfad 39" d="M311.378,79.251c.783,0,1.1.584,1.138,1.262h-2.379a1.218,1.218,0,0,1,1.242-1.262m-1.242,2.224h3.717c0-1.88-.563-3.247-2.558-3.247-1.67,0-2.5,1.285-2.5,2.841a2.554,2.554,0,0,0,2.808,2.786,3.7,3.7,0,0,0,1.848-.427V82.288a3.62,3.62,0,0,1-1.784.543,1.406,1.406,0,0,1-1.535-1.357" transform="translate(-98.551 -21.046)" fill="#fff"/>
    <path id="Pfad_40" data-name="Pfad 40" d="M290.929,84.049h1.577l1.984-5.376h-1.4L291.8,82.588h-.021l-1.336-3.915h-1.5Z" transform="translate(-84.319 -21.365)" fill="#fff"/>
    <rect id="Rechteck_42" data-name="Rechteck 42" width="1.399" height="1.336" transform="translate(202.236 54.989)" fill="#fff"/>
    <rect id="Rechteck_43" data-name="Rechteck 43" width="1.399" height="5.376" transform="translate(202.236 57.307)" fill="#fff"/>
    <path id="Pfad_41" data-name="Pfad 41" d="M265.091,78.578a1.581,1.581,0,0,0,1.7,1.743,3.71,3.71,0,0,0,1.033-.124l-.041-1.107a1.258,1.258,0,0,1-.637.145c-.533,0-.659-.428-.659-.887V75.842h1.244V74.819H266.49V73.295l-1.4.448v1.076h-1.034v1.023h1.034Z" transform="translate(-66.495 -17.513)" fill="#fff"/>
    <path id="Pfad_42" data-name="Pfad 42" d="M246.857,82.351a1.187,1.187,0,0,1-.981.481c-.5,0-.888-.2-.888-.657,0-.825.93-.93,1.556-.93h.605a1.778,1.778,0,0,1-.292,1.107m1.588.178c-.01-.4-.021-.8-.021-1.347v-.689c0-1.588-.679-2.267-2.319-2.267a4.812,4.812,0,0,0-1.868.407l.041,1.2a2.817,2.817,0,0,1,1.661-.584c.825,0,1.21.292,1.21,1.158h-.773a4.259,4.259,0,0,0-1.805.313,1.581,1.581,0,0,0-.92,1.536,1.716,1.716,0,0,0,1.879,1.6,1.918,1.918,0,0,0,1.661-.93h.02a6.429,6.429,0,0,0,.064.8h1.231c-.031-.417-.052-.794-.062-1.2" transform="translate(-51.874 -21.046)" fill="#fff"/>
    <path id="Pfad_43" data-name="Pfad 43" d="M225.881,84.049h1.575l1.984-5.376h-1.4l-1.295,3.915h-.021l-1.336-3.915h-1.5Z" transform="translate(-37.714 -21.365)" fill="#fff"/>
    <path id="Pfad_44" data-name="Pfad 44" d="M206.793,82.769c-1.066,0-1.347-.97-1.347-1.858a1.371,1.371,0,1,1,2.7,0c0,.9-.282,1.858-1.357,1.858m0-4.541a2.691,2.691,0,0,0-2.808,2.851,2.814,2.814,0,0,0,5.627,0,2.694,2.694,0,0,0-2.819-2.851" transform="translate(-23.456 -21.047)" fill="#fff"/>
    <path id="Pfad_45" data-name="Pfad 45" d="M183.13,83.73h1.4V81.1c0-.689.219-1.785,1.233-1.785.9,0,.908.887.908,1.546V83.73h1.4V80.338c0-1.212-.554-2.11-1.827-2.11a2.012,2.012,0,0,0-1.765.856h-.02v-.73H183.13Z" transform="translate(-8.514 -21.047)" fill="#fff"/>
    <path id="Pfad_46" data-name="Pfad 46" d="M162.368,83.73h1.4V81.1c0-.689.219-1.785,1.233-1.785.9,0,.908.887.908,1.546V83.73h1.4V80.338c0-1.212-.553-2.11-1.827-2.11a2.008,2.008,0,0,0-1.764.856h-.02v-.73h-1.326Z" transform="translate(6.361 -21.047)" fill="#fff"/>
    <rect id="Rechteck_44" data-name="Rechteck 44" width="1.461" height="7.287" transform="translate(166.312 55.397)" fill="#fff"/>
    <rect id="Rechteck_45" data-name="Rechteck 45" width="2.821" height="14.063" transform="translate(248.971 37.558)" fill="#fff"/>
    <path id="Pfad_47" data-name="Pfad 47" d="M466.758,11.24h-4.03V9.025h10.88V11.24h-4.029V23.086h-2.821Z" transform="translate(-208.834 28.534)" fill="#fff"/>
    <path id="Pfad_48" data-name="Pfad 48" d="M508.5,9.023h2.821V20.869h5.458v2.217H508.5Z" transform="translate(-241.626 28.535)" fill="#fff"/>
    <path id="Pfad_49" data-name="Pfad 49" d="M545.862,21.957a9.276,9.276,0,0,1,3.606-.786c3.164,0,4.474,1.31,4.474,4.373v1.329c0,1.047.018,1.835.038,2.6.021.786.063,1.512.122,2.316h-2.377a12.892,12.892,0,0,1-.122-1.55h-.042a3.7,3.7,0,0,1-3.2,1.793c-1.835,0-3.626-1.108-3.626-3.083a3.048,3.048,0,0,1,1.773-2.962,8.211,8.211,0,0,1,3.485-.6h1.491c0-1.672-.746-2.237-2.337-2.237a5.425,5.425,0,0,0-3.2,1.129Zm3.164,8.1a2.3,2.3,0,0,0,1.894-.927,3.453,3.453,0,0,0,.564-2.135h-1.169c-1.208,0-3,.2-3,1.793,0,.886.745,1.269,1.713,1.269" transform="translate(-267.588 19.832)" fill="#fff"/>
    <path id="Pfad_50" data-name="Pfad 50" d="M584.717,5.327h2.7v6.065h.041a3.633,3.633,0,0,1,3.1-1.572c3.185,0,4.352,2.537,4.352,5.4,0,2.842-1.167,5.46-4.352,5.46a3.8,3.8,0,0,1-3.184-1.511h-.039v1.269h-2.619Zm5.1,13.257c1.773,0,2.276-1.933,2.276-3.365,0-1.39-.485-3.3-2.237-3.3-1.733,0-2.418,1.853-2.418,3.3,0,1.471.584,3.365,2.378,3.365" transform="translate(-296.234 31.183)" fill="#fff"/>
    <path id="Pfad_51" data-name="Pfad 51" d="M202.486,24.357a5.432,5.432,0,0,1,3.205-1.129c1.6,0,2.341.564,2.341,2.239H206.54a8.226,8.226,0,0,0-3.489.6,3.051,3.051,0,0,0-1.776,2.965c0,1.975,1.795,3.085,3.63,3.085a3.707,3.707,0,0,0,3.206-1.8h.04a13.018,13.018,0,0,0,.122,1.553h2.38c-.06-.807-.1-1.533-.122-2.319-.019-.768-.039-1.554-.039-2.6V25.627c0-3.065-1.311-4.376-4.478-4.376a9.294,9.294,0,0,0-3.61.786Zm1.371,4.517c0-1.593,1.8-1.794,3-1.794h1.17a3.433,3.433,0,0,1-.566,2.136,2.29,2.29,0,0,1-1.894.929c-.969,0-1.715-.384-1.715-1.271" transform="translate(-21.514 19.775)" fill="#fff"/>
    <path id="Pfad_52" data-name="Pfad 52" d="M241.252,31.938h2.7V26.9c0-1.352.222-3.489,2.016-3.489,1.554,0,1.554,1.372,1.554,2.34v6.191h2.7V26.9c0-1.352.222-3.489,2.016-3.489,1.552,0,1.552,1.372,1.552,2.34v6.191h2.7V25.385c0-2.321-.726-4.075-3.285-4.075a3.557,3.557,0,0,0-3.247,1.835A3.032,3.032,0,0,0,246.9,21.31,3.66,3.66,0,0,0,243.812,23h-.041V21.553h-2.52Z" transform="translate(-50.156 19.732)" fill="#fff"/>
    <path id="Pfad_53" data-name="Pfad 53" d="M302.609,25.668a2.354,2.354,0,0,1,2.4-2.441c1.511,0,2.115,1.13,2.2,2.441Zm6.413,3.427a7.007,7.007,0,0,1-3.448,1.05,2.715,2.715,0,0,1-2.964-2.622h7.178c0-3.63-1.088-6.272-4.941-6.272-3.225,0-4.819,2.481-4.819,5.486,0,3.408,2,5.383,5.425,5.383a7.127,7.127,0,0,0,3.569-.826Z" transform="translate(-92.265 19.775)" fill="#fff"/>
    <rect id="Rechteck_46" data-name="Rechteck 46" width="2.701" height="15.125" transform="translate(219.564 36.595)" fill="#fff"/>
    <path id="Pfad_54" data-name="Pfad 54" d="M400.184,21.925a3.055,3.055,0,0,0,3.288,3.367,7.131,7.131,0,0,0,2-.242l-.081-2.139a2.4,2.4,0,0,1-1.231.283c-1.028,0-1.271-.827-1.271-1.715v-4.84h2.4V14.665h-2.4V11.721l-2.7.866v2.078h-2v1.976h2Z" transform="translate(-162.594 26.602)" fill="#fff"/>
    <path id="Pfad_55" data-name="Pfad 55" d="M363.231,21.075a5.466,5.466,0,1,0,5.466,5.466,5.466,5.466,0,0,0-5.466-5.466m0,2.182a3.284,3.284,0,1,1-3.284,3.283,3.287,3.287,0,0,1,3.284-3.283" transform="translate(-133.632 19.901)" fill="#fff"/>
    <path id="Pfad_56" data-name="Pfad 56" d="M161.615,18.955a4.7,4.7,0,1,1,.222-7.118l1.888-1.884a7.368,7.368,0,1,0-.228,10.9l-.039-.054Z" transform="translate(14.293 29.318)" fill="#fff"/>
  </g>
</svg>
